<svg width="37" height="37" viewBox="0 0 37 37" fill="none" xmlns="http://www.w3.org/2000/svg">
<path d="M33.75 17.8189H33.4875C32.4094 13.0002 28.1062 9.38145 22.9687 9.38145H19.6875V8.18145C21.3187 7.6002 22.5 6.05332 22.5 4.2252C22.5 1.9002 20.6062 0.00644982 18.2812 0.00644982C15.9562 0.00644982 14.0625 1.9002 14.0625 4.2252C14.0625 6.05332 15.2437 7.6002 16.875 8.18145V9.38145H13.5937C8.45625 9.38145 4.15312 13.0002 3.075 17.8189H2.8125C1.26562 17.8189 0 19.0846 0 20.6314V23.4439C0 24.9908 1.26562 26.2564 2.8125 26.2564H3.32812C4.43437 29.7064 7.22812 32.3877 10.7344 33.3627C10.4719 33.9158 10.3125 34.5158 10.3125 35.1627C10.3125 35.9408 10.9406 36.569 11.7187 36.569H24.8437C25.6219 36.569 26.25 35.9408 26.25 35.1627C26.25 34.5158 26.0906 33.9065 25.8281 33.3627C29.3344 32.3971 32.1281 29.7064 33.2344 26.2564H33.75C35.2969 26.2564 36.5625 24.9908 36.5625 23.4439V20.6314C36.5625 19.0846 35.2969 17.8189 33.75 17.8189ZM18.2812 2.81895C19.0594 2.81895 19.6875 3.44707 19.6875 4.2252C19.6875 5.00332 19.0594 5.63145 18.2812 5.63145C17.5031 5.63145 16.875 5.00332 16.875 4.2252C16.875 3.44707 17.5031 2.81895 18.2812 2.81895ZM22.9687 30.944H13.5937C9.19687 30.944 5.625 27.3721 5.625 22.9752V20.1627C5.625 15.7658 9.19687 12.1939 13.5937 12.1939H22.9687C27.3656 12.1939 30.9375 15.7658 30.9375 20.1627V22.9752C30.9375 27.3721 27.3656 30.944 22.9687 30.944Z" fill="url(#paint0_linear_1512_763)"/>
<path d="M13.125 15.9439C11.5781 15.9439 10.3125 17.2096 10.3125 18.7564V21.5689C10.3125 23.1158 11.5781 24.3814 13.125 24.3814C14.6719 24.3814 15.9375 23.1158 15.9375 21.5689V18.7564C15.9375 17.2096 14.6719 15.9439 13.125 15.9439Z" fill="url(#paint1_linear_1512_763)"/>
<path d="M23.4375 15.9439C21.8906 15.9439 20.625 17.2096 20.625 18.7564V21.5689C20.625 23.1158 21.8906 24.3814 23.4375 24.3814C24.9844 24.3814 26.25 23.1158 26.25 21.5689V18.7564C26.25 17.2096 24.9844 15.9439 23.4375 15.9439Z" fill="url(#paint2_linear_1512_763)"/>
<path d="M8.46562 2.74395L11.2781 3.68145C11.4281 3.72833 11.5781 3.75645 11.7187 3.75645C12.3094 3.75645 12.8531 3.38145 13.05 2.79082C13.2937 2.0502 12.9 1.25333 12.1594 1.00958L9.34687 0.0720752C8.61562 -0.171675 7.81875 0.222075 7.56562 0.9627C7.3125 1.70333 7.71562 2.5002 8.45625 2.74395H8.46562Z" fill="url(#paint3_linear_1512_763)"/>
<path d="M8.90625 8.44395C9.05625 8.44395 9.20625 8.4252 9.34687 8.36895L12.1594 7.43145C12.9 7.1877 13.2937 6.39082 13.05 5.6502C12.8062 4.90957 12.0094 4.51582 11.2687 4.75957L8.45625 5.69707C7.71562 5.94082 7.32187 6.7377 7.56562 7.47833C7.7625 8.06895 8.30625 8.44395 8.89687 8.44395H8.90625Z" fill="url(#paint4_linear_1512_763)"/>
<path d="M24.8437 3.75645C24.9937 3.75645 25.1437 3.7377 25.2844 3.68145L28.0969 2.74395C28.8375 2.5002 29.2312 1.70333 28.9875 0.9627C28.7437 0.222075 27.9469 -0.171675 27.2062 0.0720752L24.3937 1.00958C23.6531 1.25333 23.2594 2.0502 23.5031 2.79082C23.7 3.38145 24.2437 3.75645 24.8344 3.75645H24.8437Z" fill="url(#paint5_linear_1512_763)"/>
<path d="M24.4031 7.43145L27.2156 8.36895C27.3656 8.41582 27.5156 8.44395 27.6562 8.44395C28.2469 8.44395 28.7906 8.06895 28.9875 7.47833C29.2312 6.7377 28.8375 5.94082 28.0969 5.69707L25.2844 4.75957C24.5531 4.51582 23.7469 4.90957 23.5031 5.6502C23.2594 6.39082 23.6531 7.1877 24.3937 7.43145H24.4031Z" fill="url(#paint6_linear_1512_763)"/>
<defs>
<linearGradient id="paint0_linear_1512_763" x1="18.2812" y1="0" x2="18.2812" y2="36.569" gradientUnits="userSpaceOnUse">
<stop stop-color="#AE9101"/>
<stop offset="1" stop-color="#F2E083"/>
</linearGradient>
<linearGradient id="paint1_linear_1512_763" x1="18.2812" y1="0" x2="18.2812" y2="36.569" gradientUnits="userSpaceOnUse">
<stop stop-color="#AE9101"/>
<stop offset="1" stop-color="#F2E083"/>
</linearGradient>
<linearGradient id="paint2_linear_1512_763" x1="18.2812" y1="0" x2="18.2812" y2="36.569" gradientUnits="userSpaceOnUse">
<stop stop-color="#AE9101"/>
<stop offset="1" stop-color="#F2E083"/>
</linearGradient>
<linearGradient id="paint3_linear_1512_763" x1="18.2812" y1="0" x2="18.2812" y2="36.569" gradientUnits="userSpaceOnUse">
<stop stop-color="#AE9101"/>
<stop offset="1" stop-color="#F2E083"/>
</linearGradient>
<linearGradient id="paint4_linear_1512_763" x1="18.2812" y1="0" x2="18.2812" y2="36.569" gradientUnits="userSpaceOnUse">
<stop stop-color="#AE9101"/>
<stop offset="1" stop-color="#F2E083"/>
</linearGradient>
<linearGradient id="paint5_linear_1512_763" x1="18.2812" y1="0" x2="18.2812" y2="36.569" gradientUnits="userSpaceOnUse">
<stop stop-color="#AE9101"/>
<stop offset="1" stop-color="#F2E083"/>
</linearGradient>
<linearGradient id="paint6_linear_1512_763" x1="18.2812" y1="0" x2="18.2812" y2="36.569" gradientUnits="userSpaceOnUse">
<stop stop-color="#AE9101"/>
<stop offset="1" stop-color="#F2E083"/>
</linearGradient>
</defs>
</svg>
