<svg width="24" height="24" viewBox="0 0 24 24" fill="none" xmlns="http://www.w3.org/2000/svg">
<path d="M4.5 6H1.5C0.671573 6 0 6.67157 0 7.5V22.5C0 23.3284 0.671573 24 1.5 24H4.5C5.32843 24 6 23.3284 6 22.5V7.5C6 6.67157 5.32843 6 4.5 6Z" fill="url(#paint0_linear_1515_536)"/>
<path d="M13.5 9H10.5C9.67157 9 9 9.67157 9 10.5V22.5C9 23.3284 9.67157 24 10.5 24H13.5C14.3284 24 15 23.3284 15 22.5V10.5C15 9.67157 14.3284 9 13.5 9Z" fill="url(#paint1_linear_1515_536)"/>
<path d="M22.5 0H19.5C18.6716 0 18 0.671573 18 1.5V22.5C18 23.3284 18.6716 24 19.5 24H22.5C23.3284 24 24 23.3284 24 22.5V1.5C24 0.671573 23.3284 0 22.5 0Z" fill="url(#paint2_linear_1515_536)"/>
<defs>
<linearGradient id="paint0_linear_1515_536" x1="3" y1="6" x2="3" y2="24" gradientUnits="userSpaceOnUse">
<stop stop-color="#FFD607"/>
<stop offset="1" stop-color="#F2E18D"/>
</linearGradient>
<linearGradient id="paint1_linear_1515_536" x1="12" y1="9" x2="12" y2="24" gradientUnits="userSpaceOnUse">
<stop stop-color="#FFD607"/>
<stop offset="1" stop-color="#F2E18D"/>
</linearGradient>
<linearGradient id="paint2_linear_1515_536" x1="21" y1="0" x2="21" y2="24" gradientUnits="userSpaceOnUse">
<stop stop-color="#FFD607"/>
<stop offset="1" stop-color="#F2E18D"/>
</linearGradient>
</defs>
</svg>
